<?xml version="1.0" encoding="utf-8"?>
<!-- Generator: Adobe Illustrator 19.0.0, SVG Export Plug-In . SVG Version: 6.00 Build 0)  -->
<svg version="1.1" id="Layer_1" xmlns="http://www.w3.org/2000/svg" xmlns:xlink="http://www.w3.org/1999/xlink" x="0px" y="0px"
	 viewBox="0 0 312.8 71.7" style="enable-background:new 0 0 312.8 71.7;" xml:space="preserve">
<style type="text/css">
	.st0{fill:#BFE038;}
	.st1{fill:#7FCA1D;}
	.st2{fill:#333333;}
</style>
<g>
	<path class="st0" d="M0.1,7.9C0,3.7,3.7-0.1,7.9,0C20.7,0,33.4,0,46.1,0C50,0,53.5,3.1,53.9,7c0.3,4.3,0,8.7,0.1,13
		c0,4.9,0.5,9.8-0.5,14.6c-0.8,3.4-4.2,5.3-7.4,5.3c-8.7,0.4-17.4,0-26,0.1c-2.6,0-5.3-0.1-7.9,0.1c-4.2,3.7-7.9,7.9-12,11.7
		C-0.1,37.2,0,22.5,0.1,7.9z"/>
</g>
<g>
	<path class="st1" d="M54,20c4,0.1,7.9-0.4,11.9,0.3c3.9,0.8,6.4,4.8,6.1,8.6c0,14.3,0.1,28.5-0.1,42.8c-4.2-3.7-7.7-8-12-11.6
		c-10.6-0.4-21.3,0.1-32-0.2c-3.9,0.1-7.5-3.1-7.8-6.9c-0.4-4.3,0-8.7-0.1-13c8.7-0.1,17.4,0.3,26-0.1c3.3,0,6.7-1.9,7.4-5.3
		C54.5,29.8,54,24.9,54,20z"/>
</g>
<g>
	<path class="st2" d="M109.2,29.4h-9.5l-1.6,4.5h-5l8.5-23.8h5.5l8.5,23.8h-5L109.2,29.4z M104.4,15.6l-3.4,9.9h6.9L104.4,15.6z"/>
	<path class="st2" d="M119,10.2h4.8v23.7H119V10.2z"/>
	<path class="st2" d="M139.4,34.1c-6.7,0-12.2-5-12.2-12.2c0-7.1,5.5-12.1,12.2-12.1c6.8,0,12.1,5,12.1,12.1
		C151.6,29.1,146.2,34.1,139.4,34.1z M139.4,29.9c4.3,0,7.2-3.1,7.2-7.9c0-4.8-3-7.9-7.2-7.9c-4.3,0-7.3,3-7.3,7.9
		C132.1,26.8,135.1,29.9,139.4,29.9z"/>
	<path class="st2" d="M174.1,9.9c5.3,0,9.6,2.8,11.2,7.7h-5.5c-1.1-2.3-3.2-3.4-5.7-3.4c-4.1,0-7.1,3-7.1,7.9c0,4.8,3,7.9,7.1,7.9
		c2.5,0,4.6-1.1,5.7-3.4h5.5c-1.6,4.9-5.9,7.7-11.2,7.7c-6.8,0-12-5-12-12.1C162,14.9,167.2,9.9,174.1,9.9z"/>
	<path class="st2" d="M197.7,34.2c-5.4,0-9.6-3.8-9.6-9.7c0-5.9,4.2-9.7,9.7-9.7s9.7,3.8,9.7,9.7C207.5,30.4,203.1,34.2,197.7,34.2z
		 M197.7,30.1c2.5,0,4.9-1.8,4.9-5.6c0-3.8-2.3-5.6-4.9-5.6s-4.8,1.8-4.8,5.6C192.9,28.2,195.1,30.1,197.7,30.1z"/>
	<path class="st2" d="M224.2,23.5c0-3-1.7-4.7-4.2-4.7c-2.6,0-4.2,1.6-4.2,4.7v10.4H211V15.1h4.8v2.3c1.2-1.6,3.3-2.6,5.7-2.6
		c4.4,0,7.5,2.9,7.5,8.1v11h-4.8V23.5z"/>
	<path class="st2" d="M234.2,19H232v-3.9h2.2v-4.7h4.8v4.7h4.2V19H239v9.1c0,1.3,0.5,1.8,2,1.8h2.2v4h-3c-3.6,0-6-1.5-6-5.8V19z"/>
	<path class="st2" d="M254,14.8c3,0,5.1,1.4,6.2,3v-2.7h4.8v18.8h-4.8v-2.8c-1.1,1.6-3.3,3.1-6.3,3.1c-4.8,0-8.6-3.9-8.6-9.8
		S249.2,14.8,254,14.8z M255.3,18.9c-2.5,0-5,1.9-5,5.5c0,3.6,2.4,5.6,5,5.6c2.6,0,5-2,5-5.5C260.3,20.9,257.9,18.9,255.3,18.9z"/>
	<path class="st2" d="M277.8,14.8c4.7,0,7.9,2.4,8.9,6.7h-5.1c-0.5-1.6-1.8-2.6-3.8-2.6c-2.7,0-4.4,2-4.4,5.7c0,3.7,1.8,5.6,4.4,5.6
		c2,0,3.2-0.9,3.8-2.6h5.1c-1,4-4.2,6.7-8.9,6.7c-5.4,0-9.3-3.8-9.3-9.7S272.4,14.8,277.8,14.8z"/>
	<path class="st2" d="M290.9,19h-2.2v-3.9h2.2v-4.7h4.8v4.7h4.2V19h-4.2v9.1c0,1.3,0.5,1.8,2,1.8h2.2v4h-3c-3.6,0-6-1.5-6-5.8V19z"
		/>
</g>
<g>
	<path class="st1" d="M96.4,47v11.7h4.6V61h-7.4V47H96.4z"/>
	<path class="st1" d="M102.5,47c0-0.9,0.7-1.6,1.7-1.6c1,0,1.7,0.7,1.7,1.6s-0.7,1.6-1.7,1.6C103.2,48.6,102.5,47.9,102.5,47z
		 M102.8,49.9h2.8V61h-2.8V49.9z"/>
	<path class="st1" d="M108.8,52.2h-1.3v-2.3h1.3v-2.7h2.8v2.7h2.5v2.3h-2.5v5.4c0,0.7,0.3,1.1,1.2,1.1h1.3V61h-1.8
		c-2.1,0-3.5-0.9-3.5-3.4V52.2z"/>
	<path class="st1" d="M121,61.2c-3.2,0-5.6-2.2-5.6-5.7c0-3.5,2.3-5.7,5.6-5.7c3.2,0,5.5,2.2,5.5,5.5c0,0.4,0,0.7-0.1,1.1h-8.1
		c0.1,1.6,1.3,2.6,2.7,2.6c1.2,0,1.9-0.6,2.2-1.3h3C125.6,59.6,123.7,61.2,121,61.2z M118.3,54.4h5.3c0-1.5-1.2-2.4-2.6-2.4
		C119.6,52,118.5,52.9,118.3,54.4z"/>
	<path class="st1" d="M141.3,49.3H136v3.5h4.7V55H136v3.7h5.3V61h-8.1V47h8.1V49.3z"/>
	<path class="st1" d="M148.2,49.7c1.5,0,2.9,0.7,3.6,1.7v-5.3h2.8V61h-2.8v-1.6c-0.7,1-1.9,1.8-3.6,1.8c-2.8,0-5.1-2.3-5.1-5.8
		C143.2,52,145.4,49.7,148.2,49.7z M148.9,52.2c-1.5,0-2.9,1.1-2.9,3.2s1.4,3.3,2.9,3.3c1.5,0,2.9-1.2,2.9-3.3
		C151.9,53.4,150.5,52.2,148.9,52.2z"/>
	<path class="st1" d="M157.1,47c0-0.9,0.7-1.6,1.7-1.6c1,0,1.7,0.7,1.7,1.6s-0.7,1.6-1.7,1.6C157.9,48.6,157.1,47.9,157.1,47z
		 M157.4,49.9h2.8V61h-2.8V49.9z"/>
	<path class="st1" d="M163.4,52.2h-1.3v-2.3h1.3v-2.7h2.8v2.7h2.5v2.3h-2.5v5.4c0,0.7,0.3,1.1,1.2,1.1h1.3V61H167
		c-2.1,0-3.5-0.9-3.5-3.4V52.2z"/>
	<path class="st1" d="M170.5,47c0-0.9,0.7-1.6,1.7-1.6c1,0,1.7,0.7,1.7,1.6s-0.7,1.6-1.7,1.6C171.2,48.6,170.5,47.9,170.5,47z
		 M170.8,49.9h2.8V61h-2.8V49.9z"/>
	<path class="st1" d="M181.2,61.2c-3.2,0-5.6-2.2-5.6-5.7c0-3.5,2.5-5.7,5.7-5.7c3.2,0,5.7,2.2,5.7,5.7
		C187,58.9,184.5,61.2,181.2,61.2z M181.2,58.7c1.5,0,2.9-1.1,2.9-3.3c0-2.2-1.4-3.3-2.9-3.3s-2.8,1.1-2.8,3.3
		C178.5,57.7,179.7,58.7,181.2,58.7z"/>
	<path class="st1" d="M196.8,54.9c0-1.8-1-2.7-2.5-2.7c-1.5,0-2.5,1-2.5,2.7V61h-2.8V49.9h2.8v1.4c0.7-0.9,1.9-1.5,3.3-1.5
		c2.6,0,4.4,1.7,4.4,4.7V61h-2.8V54.9z"/>
</g>
</svg>
